<?xml version="1.0" encoding="UTF-8" standalone="no"?>
<!-- Created with Inkscape (http://www.inkscape.org/) -->

<svg
   xmlns:dc="http://purl.org/dc/elements/1.1/"
   xmlns:cc="http://creativecommons.org/ns#"
   xmlns:rdf="http://www.w3.org/1999/02/22-rdf-syntax-ns#"
   xmlns:svg="http://www.w3.org/2000/svg"
   xmlns="http://www.w3.org/2000/svg"
   xmlns:sodipodi="http://sodipodi.sourceforge.net/DTD/sodipodi-0.dtd"
   xmlns:inkscape="http://www.inkscape.org/namespaces/inkscape"
   version="1.1"
   id="svg1261"
   xml:space="preserve"
   width="262.66666"
   height="176"
   viewBox="0 0 262.66666 176"
   sodipodi:docname="gkx.svg"
   inkscape:version="0.92.5 (2060ec1f9f, 2020-04-08)"><metadata
     id="metadata1267"><rdf:RDF><cc:Work
         rdf:about=""><dc:format>image/svg+xml</dc:format><dc:type
           rdf:resource="http://purl.org/dc/dcmitype/StillImage" /><dc:title></dc:title></cc:Work></rdf:RDF></metadata><defs
     id="defs1265"><clipPath
       clipPathUnits="userSpaceOnUse"
       id="clipPath1279"><path
         d="M 0,0 H 420 V 595 H 0 Z"
         id="path1277"
         inkscape:connector-curvature="0" /></clipPath><clipPath
       clipPathUnits="userSpaceOnUse"
       id="clipPath1289"><path
         d="m 1105.47,2240.5 h 1984 v 1322.67 h -1984 z"
         id="path1287"
         inkscape:connector-curvature="0" /></clipPath><clipPath
       clipPathUnits="userSpaceOnUse"
       id="clipPath1371"><path
         d="M 1105.47,3563.17 V 2240.5 h 1984 v 1322.67 z m 1937.2,-1232.55 h 36.63 v 26.16 h -36.63 v 0 l 26.16,-13.08 z"
         id="path1369"
         inkscape:connector-curvature="0"
         style="clip-rule:evenodd" /></clipPath><clipPath
       clipPathUnits="userSpaceOnUse"
       id="clipPath1381"><path
         d="m 1105.47,2240.5 h 1984 v 1322.67 h -1984 z"
         id="path1379"
         inkscape:connector-curvature="0" /></clipPath><clipPath
       clipPathUnits="userSpaceOnUse"
       id="clipPath1391"><path
         d="M 1105.47,3563.17 V 2240.5 h 1984 v 1322.67 z m 181.69,-39.54 v 36.63 h -26.17 v -36.63 0 l 13.08,26.17 z"
         id="path1389"
         inkscape:connector-curvature="0"
         style="clip-rule:evenodd" /></clipPath><clipPath
       clipPathUnits="userSpaceOnUse"
       id="clipPath1401"><path
         d="m 1105.47,2240.5 h 1984 v 1322.67 h -1984 z"
         id="path1399"
         inkscape:connector-curvature="0" /></clipPath><clipPath
       clipPathUnits="userSpaceOnUse"
       id="clipPath1411"><path
         d=""
         id="path1409"
         inkscape:connector-curvature="0" /></clipPath><clipPath
       clipPathUnits="userSpaceOnUse"
       id="clipPath1493"><path
         d=""
         id="path1491"
         inkscape:connector-curvature="0" /></clipPath><clipPath
       clipPathUnits="userSpaceOnUse"
       id="clipPath1507"><path
         d=""
         id="path1505"
         inkscape:connector-curvature="0" /></clipPath></defs><sodipodi:namedview
     pagecolor="#ffffff"
     bordercolor="#666666"
     borderopacity="1"
     objecttolerance="10"
     gridtolerance="10"
     guidetolerance="10"
     inkscape:pageopacity="0"
     inkscape:pageshadow="2"
     inkscape:window-width="784"
     inkscape:window-height="480"
     id="namedview1263"
     showgrid="false"
     inkscape:zoom="1.3362945"
     inkscape:cx="131.33333"
     inkscape:cy="88"
     inkscape:window-x="72"
     inkscape:window-y="27"
     inkscape:window-maximized="0"
     inkscape:current-layer="g1269" /><g
     id="g1269"
     inkscape:groupmode="layer"
     inkscape:label="gkx"
     transform="matrix(1.3333333,0,0,-1.3333333,0,176)"><g
       id="g1271"
       transform="translate(-111,-224)"><g
         id="g1273"><g
           id="g1275"
           clip-path="url(#clipPath1279)"><g
             id="g1281"
             transform="scale(0.1)"><g
               id="g1283"><g
                 id="g1285"
                 clip-path="url(#clipPath1289)"><path
                   d="m 1274.07,2343.7 h 130.82 v 261.62 H 1503 v 261.63 h 327.03 v -261.63 h 163.52 V 2343.7 h 65.4 v 261.62 h 163.52 V 2343.7 h 163.51 v 261.62 h 130.82 v 261.63 h 523.25"
                   style="fill:none;stroke:#000000;stroke-width:6.5406599;stroke-linecap:butt;stroke-linejoin:miter;stroke-miterlimit:10;stroke-dasharray:6.54066, 19.622;stroke-dashoffset:19.62199974;stroke-opacity:1"
                   id="path1291"
                   inkscape:connector-curvature="0" /><path
                   d="m 1274.07,2539.92 h 68.46 l 4.36,0.43 3.93,0.44 4.36,0.44 3.92,1.31 3.49,1.3 3.49,2.18 3.05,2.18 3.05,2.62 3.05,3.49 3.06,3.92 3.05,4.36 3.49,5.23 3.05,5.67 3.05,5.67 2.62,5.67 2.18,5.23 2.18,5.23 1.74,4.37 1.31,4.79 0.88,3.93 1.3,4.36 0.88,4.36 0.87,4.79 0.87,4.36 0.87,4.36 1.31,4.37 0.87,3.92 1.74,4.36 1.31,4.79 2.18,5.24 2.18,5.67 2.62,5.67 2.62,6.1 2.18,6.11 2.61,5.66 2.18,5.67 2.18,5.24 1.75,4.36 1.3,5.66 1.31,5.24 1.31,5.23 0.44,5.23 0.43,4.8 0.44,4.36 v 15.69 l 0.44,4.37 0.43,4.79 0.44,5.24 1.31,5.23 1.31,5.23 1.74,5.23 1.31,4.8 2.18,5.23 2.18,5.67 2.61,5.67 3.06,6.1 3.05,6.11 3.49,5.67 3.05,5.66 3.05,5.24 3.05,4.36 3.06,4.8 3.05,3.92 3.49,4.36 3.05,3.93 3.92,4.36 3.49,3.92 3.05,3.49 3.49,3.48 3.06,3.06 3.05,3.05 3.05,3.05 3.05,3.05 3.49,3.49 3.05,3.93 3.93,4.36 3.48,4.36 3.06,5.23 3.48,4.8 3.06,5.67 3.05,5.66 2.18,4.36 2.18,4.8 2.18,5.24 2.62,5.66 2.18,6.11 2.61,6.54 2.62,6.97 2.18,6.98 2.62,6.98 2.18,6.97 2.61,6.98 2.18,6.54 2.18,6.54 2.18,6.54 2.18,6.54 2.19,6.54 2.18,6.55 2.61,6.97 2.62,6.98 3.05,6.98 3.05,6.97 3.05,6.98 3.49,6.54 3.49,6.1 3.92,5.67 3.49,5.24 3.93,4.79 4.36,4.36 4.36,4.36 4.79,3.49 5.24,3.93 5.67,3.48 6.1,3.49 6.1,2.62 6.55,3.05 6.54,2.18 6.54,1.75 6.54,1.74 6.1,1.31 6.11,0.87 5.67,0.44 h 10.89 l 5.24,-0.88 5.23,-0.87 5.23,-1.3 5.24,-1.75 5.67,-2.18 5.23,-3.06 5.23,-3.48 5.23,-3.93 5.24,-4.35 4.79,-4.8 4.36,-5.24 4.36,-5.66 4.37,-6.11 3.48,-5.23 3.05,-5.67 3.49,-6.1 3.49,-6.55 3.49,-6.97 3.49,-7.41 3.92,-7.85 3.49,-8.72 3.49,-8.29 3.05,-9.15 3.49,-8.73 3.05,-9.15 2.62,-9.16 2.61,-8.72 2.18,-8.72 2.18,-8.72 2.18,-8.29 1.75,-8.28 1.74,-9.59 1.75,-9.16 1.31,-9.59 1.74,-10.04 1.31,-10.02 1.31,-10.03 1.74,-10.03 1.31,-9.6 2.18,-9.15 1.74,-9.16 2.18,-8.28 2.18,-7.85 2.62,-6.98 3.05,-6.1 3.05,-5.67 3.49,-5.23 4.8,-4.8 5.23,-4.36 5.67,-3.93 6.54,-3.49 6.98,-3.48 7.41,-2.62 7.85,-3.05 7.85,-2.18 7.41,-2.62 7.41,-2.18 7.41,-2.62 6.55,-2.17 6.1,-3.06 5.67,-3.05 4.79,-3.05 4.8,-3.93 4.8,-4.79 3.92,-4.8 4.36,-5.67 3.49,-6.1 3.49,-6.54 2.62,-6.54 2.61,-6.98 2.62,-6.54 1.74,-6.98 1.75,-6.54 1.3,-6.54 1.31,-6.54 0.88,-6.54 0.87,-6.54 0.87,-6.98 0.44,-6.97 0.87,-7.42 0.87,-7.41 0.44,-7.85 0.43,-7.85 0.88,-7.85 0.87,-7.84 0.43,-7.85 0.88,-7.42 0.87,-7.41 1.3,-7.85 0.88,-7.41 1.3,-7.85 1.75,-7.85 1.31,-7.85 2.18,-7.85 1.74,-7.41 2.18,-6.54 2.18,-6.1 2.62,-5.24 2.18,-3.92 2.18,-2.62 2.18,-1.31 h 2.18 l 2.18,1.31 1.74,2.62 2.18,3.49 1.75,4.79 2.18,5.67 2.18,6.54 1.74,7.85 2.18,8.72 2.62,9.16 2.18,9.59 2.18,10.03 1.74,10.03 2.19,10.03 2.18,10.03 1.74,9.16 2.18,9.15 1.74,8.29 2.18,9.59 2.18,9.16 2.62,9.15 2.18,8.73 3.05,8.28 3.05,8.29 3.49,7.84 3.49,7.42 3.93,6.54 3.92,6.1 4.36,5.23 4.8,4.37 4.79,4.36 5.24,3.05 3.48,2.18 4.36,2.18 4.36,1.74 4.37,1.31 4.79,1.31 5.23,0.43 5.24,0.88 h 5.23 l 5.67,-0.44 5.23,-0.44 5.67,-1.3 5.23,-1.31 5.23,-2.18 4.8,-2.62 4.8,-2.61 4.36,-3.49 3.92,-3.49 3.93,-4.36 3.48,-4.36 3.06,-5.23 3.05,-6.11 3.05,-6.54 2.62,-7.41 2.18,-8.29 2.61,-8.72 1.75,-9.59 2.18,-9.59 1.74,-10.03 1.75,-10.47 1.74,-10.47 1.75,-10.46 1.74,-10.03 1.74,-9.59 1.75,-9.16 2.18,-8.72 1.74,-8.28 2.18,-7.42 2.62,-6.97 2.62,-6.54 2.61,-5.67 3.49,-5.67 3.49,-4.8 3.92,-4.79 3.93,-3.93 4.36,-3.92 4.79,-3.05 4.8,-2.19 4.8,-2.18 5.23,-1.3 4.8,-0.88 h 4.79 l 4.8,0.44 4.8,0.87 4.36,1.31 4.35,1.74 4.37,2.19 4.36,3.49 4.79,3.48 4.36,4.36 4.8,5.23 4.8,5.24 4.79,6.54 4.36,6.54 4.8,7.41 4.8,7.41 4.36,7.85 4.36,7.85 4.36,7.85 4.36,7.85 3.92,7.41 3.49,7.85 3.92,7.41 3.93,7.42 3.49,7.85 3.92,7.84 3.93,7.85 4.36,8.29 3.92,7.85 4.36,8.72 3.93,8.28 4.36,7.85 3.92,7.85 3.49,7.85 3.93,6.98 3.48,6.97 3.05,6.54 3.06,6.11 3.05,5.66 3.49,7.42 3.49,6.98 3.49,6.97 3.48,6.98 3.49,6.97 3.49,6.98 3.05,6.11 3.06,6.54 3.05,5.67 2.61,5.67 2.62,4.79 2.61,5.23 3.06,6.11 3.05,6.1 3.05,6.54 3.49,6.11 3.05,6.54 3.05,5.67 2.62,5.23 2.18,4.8 2.18,3.92 1.75,3.49 1.31,3.49 1.74,2.61 0.87,2.62 1.31,3.05 1.31,3.06 0.87,3.48 1.74,3.93 1.75,4.79 1.31,4.37 1.3,4.79 1.75,5.23 2.18,6.11 2.18,6.54 2.18,6.54 1.74,6.98 2.18,6.97 2.18,6.54 1.75,6.11 1.31,5.67 1.74,5.23 1.31,5.67 0.87,5.67 0.87,5.23 0.88,4.79 0.43,5.24 0.44,4.79 0.43,4.36 v 28.79 l 0.44,6.1 0.44,6.54 0.43,6.54 0.87,6.54 0.87,6.54 0.88,6.11 1.74,6.1 1.31,5.23 1.31,4.8 1.74,5.67 2.18,5.67 2.62,6.1 2.18,6.11 2.62,6.1 2.61,6.54 2.62,6.11 2.61,6.1 2.62,6.1 2.62,6.11 2.18,5.67 2.18,5.66 2.18,6.11 2.61,6.54 2.62,6.54 3.05,7.42 3.05,7.41 3.06,7.41 3.49,7.85 3.48,7.85 3.93,7.41 3.48,7.41 3.93,7.42 4.36,7.41 3.49,6.1 3.49,6.11 3.92,6.1 4.36,6.54 4.36,6.54 4.8,6.98 4.79,7.41 5.24,6.98 5.23,7.41 5.23,7.41 5.67,6.98 5.24,7.41 5.66,6.98 5.23,6.54 5.24,6.54 5.23,6.11 5.23,6.1 4.8,5.67 5.67,6.54 5.67,6.54 6.1,6.54 6.11,6.54 6.54,6.55 6.53,6.53 6.99,6.11 6.97,6.54 7.41,5.67 6.98,5.67 7.41,5.23 7.42,4.36 7.41,4.36 6.97,3.92 7.42,3.49 7.41,2.62 7.41,3.05 8.29,2.18 8.28,2.18 8.72,1.75 9.16,2.18 9.16,1.3 9.59,1.75 9.59,1.31 9.59,1.31 9.16,1.74 9.16,1.31 8.29,1.31 8.28,1.3 7.85,1.31 6.98,1.75 6.97,1.74 6.98,2.18 6.97,2.62 6.98,3.05 6.54,3.49 6.54,3.49 6.11,3.92 5.67,3.92 5.66,3.93 4.8,3.93 4.8,4.35 4.36,3.93 3.92,3.49 3.49,3.49 3.49,3.05 4.36,4.79 3.93,3.93 4.35,4.36 4.8,4.8 5.23,5.23 5.24,5.23 4.79,4.8 3.49,3.49 1.31,1.31 0.43,0.43"
                   style="fill:none;stroke:#000000;stroke-width:3.27032995;stroke-linecap:round;stroke-linejoin:bevel;stroke-miterlimit:10;stroke-dasharray:none;stroke-opacity:1"
                   id="path1293"
                   inkscape:connector-curvature="0" /><path
                   d="M 1404.89,2474.51 H 1274.07"
                   style="fill:none;stroke:#000000;stroke-width:6.5406599;stroke-linecap:round;stroke-linejoin:miter;stroke-miterlimit:10;stroke-dasharray:none;stroke-opacity:1"
                   id="path1295"
                   inkscape:connector-curvature="0" /><path
                   d="m 1437.59,2605.32 h -32.7"
                   style="fill:none;stroke:#000000;stroke-width:6.5406599;stroke-linecap:round;stroke-linejoin:miter;stroke-miterlimit:10;stroke-dasharray:none;stroke-opacity:1"
                   id="path1297"
                   inkscape:connector-curvature="0" /><path
                   d="m 1503,2736.14 h -65.41"
                   style="fill:none;stroke:#000000;stroke-width:6.5406599;stroke-linecap:round;stroke-linejoin:miter;stroke-miterlimit:10;stroke-dasharray:none;stroke-opacity:1"
                   id="path1299"
                   inkscape:connector-curvature="0" /><path
                   d="M 1568.4,2866.95 H 1503"
                   style="fill:none;stroke:#000000;stroke-width:6.5406599;stroke-linecap:round;stroke-linejoin:miter;stroke-miterlimit:10;stroke-dasharray:none;stroke-opacity:1"
                   id="path1301"
                   inkscape:connector-curvature="0" /><path
                   d="M 1797.33,2997.76 H 1568.4"
                   style="fill:none;stroke:#000000;stroke-width:6.5406599;stroke-linecap:round;stroke-linejoin:miter;stroke-miterlimit:10;stroke-dasharray:none;stroke-opacity:1"
                   id="path1303"
                   inkscape:connector-curvature="0" /><path
                   d="m 1830.03,2736.14 h 130.81"
                   style="fill:none;stroke:#000000;stroke-width:6.5406599;stroke-linecap:round;stroke-linejoin:miter;stroke-miterlimit:10;stroke-dasharray:none;stroke-opacity:1"
                   id="path1305"
                   inkscape:connector-curvature="0" /><path
                   d="m 1993.55,2605.32 h -32.71"
                   style="fill:none;stroke:#000000;stroke-width:6.5406599;stroke-linecap:round;stroke-linejoin:miter;stroke-miterlimit:10;stroke-dasharray:none;stroke-opacity:1"
                   id="path1307"
                   inkscape:connector-curvature="0" /><path
                   d="m 2058.95,2474.51 h -65.4"
                   style="fill:none;stroke:#000000;stroke-width:6.5406599;stroke-linecap:round;stroke-linejoin:miter;stroke-miterlimit:10;stroke-dasharray:none;stroke-opacity:1"
                   id="path1309"
                   inkscape:connector-curvature="0" /><path
                   d="M 2222.47,2605.32 H 2058.95"
                   style="fill:none;stroke:#000000;stroke-width:6.5406599;stroke-linecap:round;stroke-linejoin:miter;stroke-miterlimit:10;stroke-dasharray:none;stroke-opacity:1"
                   id="path1311"
                   inkscape:connector-curvature="0" /><path
                   d="m 2222.47,2474.51 h 163.51"
                   style="fill:none;stroke:#000000;stroke-width:6.5406599;stroke-linecap:round;stroke-linejoin:miter;stroke-miterlimit:10;stroke-dasharray:none;stroke-opacity:1"
                   id="path1313"
                   inkscape:connector-curvature="0" /><path
                   d="m 2451.39,2605.32 h -65.41"
                   style="fill:none;stroke:#000000;stroke-width:6.5406599;stroke-linecap:round;stroke-linejoin:miter;stroke-miterlimit:10;stroke-dasharray:none;stroke-opacity:1"
                   id="path1315"
                   inkscape:connector-curvature="0" /><path
                   d="m 2516.8,2736.14 h -65.41"
                   style="fill:none;stroke:#000000;stroke-width:6.5406599;stroke-linecap:round;stroke-linejoin:miter;stroke-miterlimit:10;stroke-dasharray:none;stroke-opacity:1"
                   id="path1317"
                   inkscape:connector-curvature="0" /><path
                   d="m 2516.8,2866.95 h 32.7"
                   style="fill:none;stroke:#000000;stroke-width:6.5406599;stroke-linecap:round;stroke-linejoin:miter;stroke-miterlimit:10;stroke-dasharray:none;stroke-opacity:1"
                   id="path1319"
                   inkscape:connector-curvature="0" /><path
                   d="M 2582.21,2997.76 H 2549.5"
                   style="fill:none;stroke:#000000;stroke-width:6.5406599;stroke-linecap:round;stroke-linejoin:miter;stroke-miterlimit:10;stroke-dasharray:none;stroke-opacity:1"
                   id="path1321"
                   inkscape:connector-curvature="0" /><path
                   d="m 2582.21,3128.58 h 65.4"
                   style="fill:none;stroke:#000000;stroke-width:6.5406599;stroke-linecap:round;stroke-linejoin:miter;stroke-miterlimit:10;stroke-dasharray:none;stroke-opacity:1"
                   id="path1323"
                   inkscape:connector-curvature="0" /><path
                   d="m 2745.72,3390.2 h 327.03"
                   style="fill:none;stroke:#000000;stroke-width:6.5406599;stroke-linecap:round;stroke-linejoin:miter;stroke-miterlimit:10;stroke-dasharray:none;stroke-opacity:1"
                   id="path1325"
                   inkscape:connector-curvature="0" /><path
                   d="m 1404.89,2474.51 v 130.81"
                   style="fill:none;stroke:#000000;stroke-width:3.27032995;stroke-linecap:round;stroke-linejoin:miter;stroke-miterlimit:10;stroke-dasharray:none;stroke-opacity:1"
                   id="path1327"
                   inkscape:connector-curvature="0" /><path
                   d="m 1437.59,2605.32 v 130.82"
                   style="fill:none;stroke:#000000;stroke-width:3.27032995;stroke-linecap:round;stroke-linejoin:miter;stroke-miterlimit:10;stroke-dasharray:none;stroke-opacity:1"
                   id="path1329"
                   inkscape:connector-curvature="0" /><path
                   d="m 1503,2736.14 v 130.81"
                   style="fill:none;stroke:#000000;stroke-width:3.27032995;stroke-linecap:round;stroke-linejoin:miter;stroke-miterlimit:10;stroke-dasharray:none;stroke-opacity:1"
                   id="path1331"
                   inkscape:connector-curvature="0" /><path
                   d="m 1568.4,2866.95 v 130.81"
                   style="fill:none;stroke:#000000;stroke-width:3.27032995;stroke-linecap:round;stroke-linejoin:miter;stroke-miterlimit:10;stroke-dasharray:none;stroke-opacity:1"
                   id="path1333"
                   inkscape:connector-curvature="0" /><path
                   d="M 1993.55,2605.32 V 2474.51"
                   style="fill:none;stroke:#000000;stroke-width:3.27032995;stroke-linecap:round;stroke-linejoin:miter;stroke-miterlimit:10;stroke-dasharray:none;stroke-opacity:1"
                   id="path1335"
                   inkscape:connector-curvature="0" /><path
                   d="m 2058.95,2474.51 v 130.81"
                   style="fill:none;stroke:#000000;stroke-width:3.27032995;stroke-linecap:round;stroke-linejoin:miter;stroke-miterlimit:10;stroke-dasharray:none;stroke-opacity:1"
                   id="path1337"
                   inkscape:connector-curvature="0" /><path
                   d="M 2222.47,2605.32 V 2474.51"
                   style="fill:none;stroke:#000000;stroke-width:3.27032995;stroke-linecap:round;stroke-linejoin:miter;stroke-miterlimit:10;stroke-dasharray:none;stroke-opacity:1"
                   id="path1339"
                   inkscape:connector-curvature="0" /><path
                   d="m 2385.98,2474.51 v 130.81"
                   style="fill:none;stroke:#000000;stroke-width:3.27032995;stroke-linecap:round;stroke-linejoin:miter;stroke-miterlimit:10;stroke-dasharray:none;stroke-opacity:1"
                   id="path1341"
                   inkscape:connector-curvature="0" /><path
                   d="m 2451.39,2605.32 v 130.82"
                   style="fill:none;stroke:#000000;stroke-width:3.27032995;stroke-linecap:round;stroke-linejoin:miter;stroke-miterlimit:10;stroke-dasharray:none;stroke-opacity:1"
                   id="path1343"
                   inkscape:connector-curvature="0" /><path
                   d="m 2549.5,2866.95 v 130.81"
                   style="fill:none;stroke:#000000;stroke-width:3.27032995;stroke-linecap:round;stroke-linejoin:miter;stroke-miterlimit:10;stroke-dasharray:none;stroke-opacity:1"
                   id="path1345"
                   inkscape:connector-curvature="0" /><path
                   d="m 2582.21,2997.76 v 130.82"
                   style="fill:none;stroke:#000000;stroke-width:3.27032995;stroke-linecap:round;stroke-linejoin:miter;stroke-miterlimit:10;stroke-dasharray:none;stroke-opacity:1"
                   id="path1347"
                   inkscape:connector-curvature="0" /><path
                   d="m 2647.61,3128.58 v 130.81"
                   style="fill:none;stroke:#000000;stroke-width:3.27032995;stroke-linecap:round;stroke-linejoin:miter;stroke-miterlimit:10;stroke-dasharray:none;stroke-opacity:1"
                   id="path1349"
                   inkscape:connector-curvature="0" /><path
                   d="M 2745.72,3259.39 V 3390.2"
                   style="fill:none;stroke:#000000;stroke-width:3.27032995;stroke-linecap:round;stroke-linejoin:miter;stroke-miterlimit:10;stroke-dasharray:none;stroke-opacity:1"
                   id="path1351"
                   inkscape:connector-curvature="0" /><path
                   d="m 2647.61,3259.39 h 98.11"
                   style="fill:none;stroke:#000000;stroke-width:6.5406599;stroke-linecap:round;stroke-linejoin:miter;stroke-miterlimit:10;stroke-dasharray:none;stroke-opacity:1"
                   id="path1353"
                   inkscape:connector-curvature="0" /><path
                   d="M 1797.33,2997.76 V 2866.95"
                   style="fill:none;stroke:#000000;stroke-width:3.27032995;stroke-linecap:round;stroke-linejoin:miter;stroke-miterlimit:10;stroke-dasharray:none;stroke-opacity:1"
                   id="path1355"
                   inkscape:connector-curvature="0" /><path
                   d="M 1830.03,2866.95 V 2736.14"
                   style="fill:none;stroke:#000000;stroke-width:3.27032995;stroke-linecap:round;stroke-linejoin:miter;stroke-miterlimit:10;stroke-dasharray:none;stroke-opacity:1"
                   id="path1357"
                   inkscape:connector-curvature="0" /><path
                   d="M 1960.84,2736.14 V 2605.32"
                   style="fill:none;stroke:#000000;stroke-width:3.27032995;stroke-linecap:round;stroke-linejoin:miter;stroke-miterlimit:10;stroke-dasharray:none;stroke-opacity:1"
                   id="path1359"
                   inkscape:connector-curvature="0" /><path
                   d="m 1797.33,2866.95 h 32.7"
                   style="fill:none;stroke:#000000;stroke-width:6.5406599;stroke-linecap:round;stroke-linejoin:miter;stroke-miterlimit:10;stroke-dasharray:none;stroke-opacity:1"
                   id="path1361"
                   inkscape:connector-curvature="0" /><path
                   d="m 2516.8,2736.14 v 130.81"
                   style="fill:none;stroke:#000000;stroke-width:3.27032995;stroke-linecap:round;stroke-linejoin:miter;stroke-miterlimit:10;stroke-dasharray:none;stroke-opacity:1"
                   id="path1363"
                   inkscape:connector-curvature="0" /></g></g><g
               id="g1365"><g
                 id="g1367"
                 clip-path="url(#clipPath1371)"><path
                   d="M 1110.56,2343.7 H 3072.75"
                   style="fill:none;stroke:#000000;stroke-width:3.27032995;stroke-linecap:butt;stroke-linejoin:miter;stroke-miterlimit:10;stroke-dasharray:none;stroke-opacity:1"
                   id="path1373"
                   inkscape:connector-curvature="0" /></g></g><g
               id="g1375"><g
                 id="g1377"
                 clip-path="url(#clipPath1381)"><path
                   d="m 3042.67,2330.62 26.16,13.08 -26.16,13.08"
                   style="fill:none;stroke:#000000;stroke-width:3.27032995;stroke-linecap:butt;stroke-linejoin:miter;stroke-miterlimit:10;stroke-dasharray:none;stroke-opacity:1"
                   id="path1383"
                   inkscape:connector-curvature="0" /></g></g><g
               id="g1385"><g
                 id="g1387"
                 clip-path="url(#clipPath1391)"><path
                   d="M 1274.07,2245.59 V 3553.72"
                   style="fill:none;stroke:#000000;stroke-width:3.27032995;stroke-linecap:butt;stroke-linejoin:miter;stroke-miterlimit:10;stroke-dasharray:none;stroke-opacity:1"
                   id="path1393"
                   inkscape:connector-curvature="0" /></g></g><g
               id="g1395"><g
                 id="g1397"
                 clip-path="url(#clipPath1401)"><path
                   d="m 1287.16,3523.63 -13.09,26.17 -13.08,-26.17"
                   style="fill:none;stroke:#000000;stroke-width:3.27032995;stroke-linecap:butt;stroke-linejoin:miter;stroke-miterlimit:10;stroke-dasharray:none;stroke-opacity:1"
                   id="path1403"
                   inkscape:connector-curvature="0" /></g></g><g
               id="g1405"><g
                 id="g1407"
                 clip-path="url(#clipPath1411)" /></g><g
               id="g1413"
               transform="scale(10)"><text
                 transform="matrix(1,0,0,-1,241.503,332.48)"
                 style="font-variant:normal;font-weight:normal;font-size:9.96263981px;font-family:LMMathItalic10;-inkscape-font-specification:LMMathItalic10-Regular;writing-mode:lr-tb;fill:#231f20;fill-opacity:1;fill-rule:nonzero;stroke:none"
                 id="text1417"><tspan
                   x="0"
                   y="0"
                   id="tspan1415">X</tspan></text>
<text
                 transform="matrix(1,0,0,-1,250.53894,332.48)"
                 style="font-variant:normal;font-weight:normal;font-size:9.96263981px;font-family:LMRoman10;-inkscape-font-specification:LMRoman10-Regular;writing-mode:lr-tb;fill:#231f20;fill-opacity:1;fill-rule:nonzero;stroke:none"
                 id="text1421"><tspan
                   x="0"
                   y="0"
                   id="tspan1419">(</tspan></text>
<text
                 transform="matrix(1,0,0,-1,254.40886,332.48)"
                 style="font-variant:normal;font-weight:normal;font-size:9.96263981px;font-family:LMMathItalic10;-inkscape-font-specification:LMMathItalic10-Regular;writing-mode:lr-tb;fill:#231f20;fill-opacity:1;fill-rule:nonzero;stroke:none"
                 id="text1425"><tspan
                   x="0"
                   y="0"
                   id="tspan1423">ω</tspan></text>
<text
                 transform="matrix(1,0,0,-1,260.9698,332.48)"
                 style="font-variant:normal;font-weight:normal;font-size:9.96263981px;font-family:LMRoman10;-inkscape-font-specification:LMRoman10-Regular;writing-mode:lr-tb;fill:#231f20;fill-opacity:1;fill-rule:nonzero;stroke:none"
                 id="text1429"><tspan
                   x="0"
                   y="0"
                   id="tspan1427">)</tspan></text>
<text
                 transform="matrix(1,0,0,-1,268.25144,289.9655)"
                 style="font-variant:normal;font-weight:normal;font-size:9.96263981px;font-family:LMMathItalic10;-inkscape-font-specification:LMMathItalic10-Regular;writing-mode:lr-tb;fill:#231f20;fill-opacity:1;fill-rule:nonzero;stroke:none"
                 id="text1433"><tspan
                   x="0"
                   y="0"
                   id="tspan1431">g</tspan></text>
<text
                 transform="matrix(1,0,0,-1,273.00339,288.47175)"
                 style="font-variant:normal;font-weight:normal;font-size:6.97384977px;font-family:LMRoman7;-inkscape-font-specification:LMRoman7-Regular;writing-mode:lr-tb;fill:#231f20;fill-opacity:1;fill-rule:nonzero;stroke:none"
                 id="text1437"><tspan
                   x="0"
                   y="0"
                   id="tspan1435">1</tspan></text>
<text
                 transform="matrix(1,0,0,-1,277.47644,289.9655)"
                 style="font-variant:normal;font-weight:normal;font-size:9.96263981px;font-family:LMRoman10;-inkscape-font-specification:LMRoman10-Regular;writing-mode:lr-tb;fill:#231f20;fill-opacity:1;fill-rule:nonzero;stroke:none"
                 id="text1441"><tspan
                   x="0"
                   y="0"
                   id="tspan1439">(</tspan></text>
<text
                 transform="matrix(1,0,0,-1,281.34636,289.9655)"
                 style="font-variant:normal;font-weight:normal;font-size:9.96263981px;font-family:LMMathItalic10;-inkscape-font-specification:LMMathItalic10-Regular;writing-mode:lr-tb;fill:#231f20;fill-opacity:1;fill-rule:nonzero;stroke:none"
                 id="text1445"><tspan
                   x="0"
                   y="0"
                   id="tspan1443">X</tspan></text>
<text
                 transform="matrix(1,0,0,-1,290.3823,289.9655)"
                 style="font-variant:normal;font-weight:normal;font-size:9.96263981px;font-family:LMRoman10;-inkscape-font-specification:LMRoman10-Regular;writing-mode:lr-tb;fill:#231f20;fill-opacity:1;fill-rule:nonzero;stroke:none"
                 id="text1449"><tspan
                   x="0"
                   y="0"
                   id="tspan1447">(</tspan></text>
<text
                 transform="matrix(1,0,0,-1,294.25222,289.9655)"
                 style="font-variant:normal;font-weight:normal;font-size:9.96263981px;font-family:LMMathItalic10;-inkscape-font-specification:LMMathItalic10-Regular;writing-mode:lr-tb;fill:#231f20;fill-opacity:1;fill-rule:nonzero;stroke:none"
                 id="text1453"><tspan
                   x="0"
                   y="0"
                   id="tspan1451">ω</tspan></text>
<text
                 transform="matrix(1,0,0,-1,300.81316,289.9655)"
                 style="font-variant:normal;font-weight:normal;font-size:9.96263981px;font-family:LMRoman10;-inkscape-font-specification:LMRoman10-Regular;writing-mode:lr-tb;fill:#231f20;fill-opacity:1;fill-rule:nonzero;stroke:none"
                 id="text1457"><tspan
                   x="0 3.8711212"
                   y="0"
                   sodipodi:role="line"
                   id="tspan1455">))</tspan></text>
<text
                 transform="matrix(1,0,0,-1,268.25146,315.1987)"
                 style="font-variant:normal;font-weight:normal;font-size:9.96263981px;font-family:LMMathItalic10;-inkscape-font-specification:LMMathItalic10-Regular;writing-mode:lr-tb;fill:#231f20;fill-opacity:1;fill-rule:nonzero;stroke:none"
                 id="text1461"><tspan
                   x="0"
                   y="0"
                   id="tspan1459">g</tspan></text>
<text
                 transform="matrix(1,0,0,-1,273.00341,313.70495)"
                 style="font-variant:normal;font-weight:normal;font-size:6.97384977px;font-family:LMRoman7;-inkscape-font-specification:LMRoman7-Regular;writing-mode:lr-tb;fill:#231f20;fill-opacity:1;fill-rule:nonzero;stroke:none"
                 id="text1465"><tspan
                   x="0"
                   y="0"
                   id="tspan1463">2</tspan></text>
<text
                 transform="matrix(1,0,0,-1,277.47646,315.19909)"
                 style="font-variant:normal;font-weight:normal;font-size:9.96263981px;font-family:LMRoman10;-inkscape-font-specification:LMRoman10-Regular;writing-mode:lr-tb;fill:#231f20;fill-opacity:1;fill-rule:nonzero;stroke:none"
                 id="text1469"><tspan
                   x="0"
                   y="0"
                   id="tspan1467">(</tspan></text>
<text
                 transform="matrix(1,0,0,-1,281.34638,315.19909)"
                 style="font-variant:normal;font-weight:normal;font-size:9.96263981px;font-family:LMMathItalic10;-inkscape-font-specification:LMMathItalic10-Regular;writing-mode:lr-tb;fill:#231f20;fill-opacity:1;fill-rule:nonzero;stroke:none"
                 id="text1473"><tspan
                   x="0"
                   y="0"
                   id="tspan1471">X</tspan></text>
<text
                 transform="matrix(1,0,0,-1,290.38232,315.19909)"
                 style="font-variant:normal;font-weight:normal;font-size:9.96263981px;font-family:LMRoman10;-inkscape-font-specification:LMRoman10-Regular;writing-mode:lr-tb;fill:#231f20;fill-opacity:1;fill-rule:nonzero;stroke:none"
                 id="text1477"><tspan
                   x="0"
                   y="0"
                   id="tspan1475">(</tspan></text>
<text
                 transform="matrix(1,0,0,-1,294.25224,315.19909)"
                 style="font-variant:normal;font-weight:normal;font-size:9.96263981px;font-family:LMMathItalic10;-inkscape-font-specification:LMMathItalic10-Regular;writing-mode:lr-tb;fill:#231f20;fill-opacity:1;fill-rule:nonzero;stroke:none"
                 id="text1481"><tspan
                   x="0"
                   y="0"
                   id="tspan1479">ω</tspan></text>
<text
                 transform="matrix(1,0,0,-1,300.81318,315.19909)"
                 style="font-variant:normal;font-weight:normal;font-size:9.96263981px;font-family:LMRoman10;-inkscape-font-specification:LMRoman10-Regular;writing-mode:lr-tb;fill:#231f20;fill-opacity:1;fill-rule:nonzero;stroke:none"
                 id="text1485"><tspan
                   x="0 3.8711212"
                   y="0"
                   sodipodi:role="line"
                   id="tspan1483">))</tspan></text>
</g><g
               id="g1487"><g
                 id="g1489"
                 clip-path="url(#clipPath1493)" /></g><g
               id="g1495"
               transform="scale(10)"><text
                 transform="matrix(1,0,0,-1,291.089,237.64)"
                 style="font-variant:normal;font-weight:normal;font-size:9.96263981px;font-family:LMMathItalic10;-inkscape-font-specification:LMMathItalic10-Regular;writing-mode:lr-tb;fill:#231f20;fill-opacity:1;fill-rule:nonzero;stroke:none"
                 id="text1499"><tspan
                   x="0"
                   y="0"
                   id="tspan1497">ω</tspan></text>
</g><g
               id="g1501"><g
                 id="g1503"
                 clip-path="url(#clipPath1507)" /></g></g></g></g></g></g></svg>