<?xml version="1.0" encoding="UTF-8" standalone="no"?>
<!-- Created with Inkscape (http://www.inkscape.org/) -->

<svg
   xmlns:dc="http://purl.org/dc/elements/1.1/"
   xmlns:cc="http://creativecommons.org/ns#"
   xmlns:rdf="http://www.w3.org/1999/02/22-rdf-syntax-ns#"
   xmlns:svg="http://www.w3.org/2000/svg"
   xmlns="http://www.w3.org/2000/svg"
   xmlns:sodipodi="http://sodipodi.sourceforge.net/DTD/sodipodi-0.dtd"
   xmlns:inkscape="http://www.inkscape.org/namespaces/inkscape"
   version="1.1"
   id="svg2052"
   xml:space="preserve"
   width="188"
   height="125.33333"
   viewBox="0 0 188 125.33333"
   sodipodi:docname="intleb.svg"
   inkscape:version="0.92.5 (2060ec1f9f, 2020-04-08)"><metadata
     id="metadata2058"><rdf:RDF><cc:Work
         rdf:about=""><dc:format>image/svg+xml</dc:format><dc:type
           rdf:resource="http://purl.org/dc/dcmitype/StillImage" /><dc:title></dc:title></cc:Work></rdf:RDF></metadata><defs
     id="defs2056"><clipPath
       clipPathUnits="userSpaceOnUse"
       id="clipPath2070"><path
         d="M 0,0 H 420 V 595 H 0 Z"
         id="path2068"
         inkscape:connector-curvature="0" /></clipPath><clipPath
       clipPathUnits="userSpaceOnUse"
       id="clipPath2080"><path
         d="m 1388.97,2427.7 h 1417 v 948.141 h -1417 z"
         id="path2078"
         inkscape:connector-curvature="0" /></clipPath><clipPath
       clipPathUnits="userSpaceOnUse"
       id="clipPath2138"><path
         d="M 1388.97,3375.84 V 2427.7 h 1417 v 948.14 z M 2777.63,2492.3 h 26.26 v 18.75 h -26.26 v 0 l 18.75,-9.37 z"
         id="path2136"
         inkscape:connector-curvature="0"
         style="clip-rule:evenodd" /></clipPath><clipPath
       clipPathUnits="userSpaceOnUse"
       id="clipPath2148"><path
         d="m 1388.97,2427.7 h 1417 v 948.141 h -1417 z"
         id="path2146"
         inkscape:connector-curvature="0" /></clipPath><clipPath
       clipPathUnits="userSpaceOnUse"
       id="clipPath2158"><path
         d="M 1388.97,3375.84 V 2427.7 h 1417 v 948.14 z m 130.24,-28.34 v 26.26 h -18.76 v -26.26 0 l 9.38,18.75 z"
         id="path2156"
         inkscape:connector-curvature="0"
         style="clip-rule:evenodd" /></clipPath><clipPath
       clipPathUnits="userSpaceOnUse"
       id="clipPath2168"><path
         d="m 1388.97,2427.7 h 1417 v 948.141 h -1417 z"
         id="path2166"
         inkscape:connector-curvature="0" /></clipPath><clipPath
       clipPathUnits="userSpaceOnUse"
       id="clipPath2178"><path
         d=""
         id="path2176"
         inkscape:connector-curvature="0" /></clipPath><clipPath
       clipPathUnits="userSpaceOnUse"
       id="clipPath2204"><path
         d=""
         id="path2202"
         inkscape:connector-curvature="0" /></clipPath><clipPath
       clipPathUnits="userSpaceOnUse"
       id="clipPath2218"><path
         d=""
         id="path2216"
         inkscape:connector-curvature="0" /></clipPath></defs><sodipodi:namedview
     pagecolor="#ffffff"
     bordercolor="#666666"
     borderopacity="1"
     objecttolerance="10"
     gridtolerance="10"
     guidetolerance="10"
     inkscape:pageopacity="0"
     inkscape:pageshadow="2"
     inkscape:window-width="784"
     inkscape:window-height="480"
     id="namedview2054"
     showgrid="false"
     inkscape:zoom="1.8670213"
     inkscape:cx="94"
     inkscape:cy="62.666664"
     inkscape:window-x="72"
     inkscape:window-y="27"
     inkscape:window-maximized="0"
     inkscape:current-layer="g2060" /><g
     id="g2060"
     inkscape:groupmode="layer"
     inkscape:label="intleb"
     transform="matrix(1.3333333,0,0,-1.3333333,0,125.33333)"><g
       id="g2062"
       transform="translate(-139,-243)"><g
         id="g2064"><g
           id="g2066"
           clip-path="url(#clipPath2070)"><g
             id="g2072"
             transform="scale(0.1)"><g
               id="g2074"><g
                 id="g2076"
                 clip-path="url(#clipPath2080)"><path
                   d="M 1509.83,2501.68 H 2635.1 v 93.7734 H 1509.83 Z"
                   style="fill:#c5bdbd;fill-opacity:1;fill-rule:evenodd;stroke:none"
                   id="path2082"
                   inkscape:connector-curvature="0" /><path
                   d="M 1509.83,2501.68 H 2635.1 v 93.7734 H 1509.83 Z"
                   style="fill:none;stroke:#a2a2a2;stroke-width:4.68860006;stroke-linecap:butt;stroke-linejoin:miter;stroke-miterlimit:10;stroke-dasharray:none;stroke-opacity:1"
                   id="path2084"
                   inkscape:connector-curvature="0" /><path
                   d="m 1603.61,2595.45 h 421.973 v 93.7695 H 1603.61 Z"
                   style="fill:#c5bdbd;fill-opacity:1;fill-rule:evenodd;stroke:none"
                   id="path2086"
                   inkscape:connector-curvature="0" /><path
                   d="m 1603.61,2595.45 h 421.973 v 93.7695 H 1603.61 Z"
                   style="fill:none;stroke:#a2a2a2;stroke-width:4.68860006;stroke-linecap:butt;stroke-linejoin:miter;stroke-miterlimit:10;stroke-dasharray:none;stroke-opacity:1"
                   id="path2088"
                   inkscape:connector-curvature="0" /><path
                   d="m 2353.78,2689.22 h 281.316 v 93.7734 H 2353.78 Z"
                   style="fill:#c5bdbd;fill-opacity:1;fill-rule:evenodd;stroke:none"
                   id="path2090"
                   inkscape:connector-curvature="0" /><path
                   d="m 2353.78,2689.22 h 281.316 v 93.7734 H 2353.78 Z"
                   style="fill:none;stroke:#a2a2a2;stroke-width:4.68860006;stroke-linecap:butt;stroke-linejoin:miter;stroke-miterlimit:10;stroke-dasharray:none;stroke-opacity:1"
                   id="path2092"
                   inkscape:connector-curvature="0" /><path
                   d="m 2306.89,2595.45 h 328.203 v 93.7695 H 2306.89 Z"
                   style="fill:#c5bdbd;fill-opacity:1;fill-rule:evenodd;stroke:none"
                   id="path2094"
                   inkscape:connector-curvature="0" /><path
                   d="m 2306.89,2595.45 h 328.203 v 93.7695 H 2306.89 Z"
                   style="fill:none;stroke:#a2a2a2;stroke-width:4.68860006;stroke-linecap:butt;stroke-linejoin:miter;stroke-miterlimit:10;stroke-dasharray:none;stroke-opacity:1"
                   id="path2096"
                   inkscape:connector-curvature="0" /><path
                   d="m 2400.67,2782.99 h 234.43 v 93.7734 h -234.43 z"
                   style="fill:#c5bdbd;fill-opacity:1;fill-rule:evenodd;stroke:none"
                   id="path2098"
                   inkscape:connector-curvature="0" /><path
                   d="m 2400.67,2782.99 h 234.43 v 93.7734 h -234.43 z"
                   style="fill:none;stroke:#a2a2a2;stroke-width:4.68860006;stroke-linecap:butt;stroke-linejoin:miter;stroke-miterlimit:10;stroke-dasharray:none;stroke-opacity:1"
                   id="path2100"
                   inkscape:connector-curvature="0" /><path
                   d="m 2447.55,2970.54 h 187.547 v 93.7734 H 2447.55 Z"
                   style="fill:#c5bdbd;fill-opacity:1;fill-rule:evenodd;stroke:none"
                   id="path2102"
                   inkscape:connector-curvature="0" /><path
                   d="m 2447.55,2970.54 h 187.547 v 93.7734 H 2447.55 Z"
                   style="fill:none;stroke:#a2a2a2;stroke-width:4.68860006;stroke-linecap:butt;stroke-linejoin:miter;stroke-miterlimit:10;stroke-dasharray:none;stroke-opacity:1"
                   id="path2104"
                   inkscape:connector-curvature="0" /><path
                   d="m 2424.11,2876.77 h 210.988 v 93.7695 H 2424.11 Z"
                   style="fill:#c5bdbd;fill-opacity:1;fill-rule:evenodd;stroke:none"
                   id="path2106"
                   inkscape:connector-curvature="0" /><path
                   d="m 2424.11,2876.77 h 210.988 v 93.7695 H 2424.11 Z"
                   style="fill:none;stroke:#a2a2a2;stroke-width:4.68860006;stroke-linecap:butt;stroke-linejoin:miter;stroke-miterlimit:10;stroke-dasharray:none;stroke-opacity:1"
                   id="path2108"
                   inkscape:connector-curvature="0" /><path
                   d="m 2494.44,3064.31 h 140.66 v 93.7734 h -140.66 z"
                   style="fill:#c5bdbd;fill-opacity:1;fill-rule:evenodd;stroke:none"
                   id="path2110"
                   inkscape:connector-curvature="0" /><path
                   d="m 2494.44,3064.31 h 140.66 v 93.7734 h -140.66 z"
                   style="fill:none;stroke:#a2a2a2;stroke-width:4.68860006;stroke-linecap:butt;stroke-linejoin:miter;stroke-miterlimit:10;stroke-dasharray:none;stroke-opacity:1"
                   id="path2112"
                   inkscape:connector-curvature="0" /><path
                   d="m 1627.05,2689.22 h 375.09 v 93.7734 h -375.09 z"
                   style="fill:#c5bdbd;fill-opacity:1;fill-rule:evenodd;stroke:none"
                   id="path2114"
                   inkscape:connector-curvature="0" /><path
                   d="m 1627.05,2689.22 h 375.09 v 93.7734 h -375.09 z"
                   style="fill:none;stroke:#a2a2a2;stroke-width:4.68860006;stroke-linecap:butt;stroke-linejoin:miter;stroke-miterlimit:10;stroke-dasharray:none;stroke-opacity:1"
                   id="path2116"
                   inkscape:connector-curvature="0" /><path
                   d="m 1673.93,2782.99 h 234.43 v 93.7734 h -234.43 z"
                   style="fill:#c5bdbd;fill-opacity:1;fill-rule:evenodd;stroke:none"
                   id="path2118"
                   inkscape:connector-curvature="0" /><path
                   d="m 1673.93,2782.99 h 234.43 v 93.7734 h -234.43 z"
                   style="fill:none;stroke:#a2a2a2;stroke-width:4.68860006;stroke-linecap:butt;stroke-linejoin:miter;stroke-miterlimit:10;stroke-dasharray:none;stroke-opacity:1"
                   id="path2120"
                   inkscape:connector-curvature="0" /><path
                   d="m 1720.82,2876.77 h 164.102 v 93.7695 H 1720.82 Z"
                   style="fill:#c5bdbd;fill-opacity:1;fill-rule:evenodd;stroke:none"
                   id="path2122"
                   inkscape:connector-curvature="0" /><path
                   d="m 1720.82,2876.77 h 164.102 v 93.7695 H 1720.82 Z"
                   style="fill:none;stroke:#a2a2a2;stroke-width:4.68860006;stroke-linecap:butt;stroke-linejoin:miter;stroke-miterlimit:10;stroke-dasharray:none;stroke-opacity:1"
                   id="path2124"
                   inkscape:connector-curvature="0" /><path
                   d="m 2072.46,2595.45 h 117.215 v 93.7695 H 2072.46 Z"
                   style="fill:#c5bdbd;fill-opacity:1;fill-rule:evenodd;stroke:none"
                   id="path2126"
                   inkscape:connector-curvature="0" /><path
                   d="m 2072.46,2595.45 h 117.215 v 93.7695 H 2072.46 Z"
                   style="fill:none;stroke:#a2a2a2;stroke-width:4.68860006;stroke-linecap:butt;stroke-linejoin:miter;stroke-miterlimit:10;stroke-dasharray:none;stroke-opacity:1"
                   id="path2128"
                   inkscape:connector-curvature="0" /><path
                   d="m 1509.83,2642.34 h 49.08 l 3.12,0.31 2.81,0.31 3.13,0.31 2.82,0.94 2.5,0.94 2.5,1.56 2.18,1.56 2.19,1.88 2.19,2.5 2.19,2.81 2.19,3.13 2.5,3.75 2.18,4.06 2.19,4.06 1.88,4.07 1.56,3.75 1.56,3.75 1.25,3.13 0.94,3.43 0.62,2.82 0.94,3.13 0.63,3.12 0.63,3.44 0.62,3.12 0.63,3.13 0.93,3.13 0.63,2.81 1.25,3.12 0.94,3.44 1.56,3.75 1.56,4.07 1.88,4.06 1.87,4.38 1.56,4.37 1.88,4.07 1.56,4.06 1.57,3.75 1.25,3.12 0.93,4.07 0.94,3.75 0.94,3.75 0.31,3.75 0.31,3.44 0.32,3.13 v 11.25 l 0.31,3.13 0.31,3.43 0.31,3.75 0.94,3.75 0.94,3.75 1.25,3.76 0.94,3.44 1.56,3.75 1.56,4.06 1.88,4.06 2.19,4.38 2.19,4.37 2.5,4.07 2.18,4.06 2.19,3.75 2.19,3.13 2.19,3.44 2.19,2.81 2.5,3.13 2.18,2.81 2.82,3.12 2.5,2.82 2.18,2.5 2.51,2.5 2.19,2.19 2.18,2.19 2.19,2.18 2.19,2.19 2.5,2.5 2.19,2.81 2.81,3.13 2.5,3.13 2.19,3.75 2.5,3.43 2.19,4.07 2.19,4.06 1.56,3.13 1.56,3.44 1.57,3.75 1.87,4.06 1.56,4.38 1.88,4.68 1.87,5 1.57,5.01 1.87,5 1.56,5 1.88,5 1.56,4.69 1.57,4.69 1.56,4.69 1.56,4.69 1.57,4.68 1.56,4.69 1.87,5 1.88,5.01 2.19,5 2.18,5 2.19,5 2.5,4.69 2.5,4.37 2.82,4.06 2.5,3.76 2.81,3.44 3.13,3.12 3.12,3.13 3.44,2.5 3.75,2.81 4.06,2.5 4.38,2.5 4.38,1.88 4.68,2.18 4.69,1.57 4.69,1.25 4.69,1.25 4.38,0.93 4.37,0.63 4.07,0.31 h 7.81 l 3.75,-0.62 3.75,-0.63 3.75,-0.94 3.75,-1.25 4.07,-1.56 3.75,-2.19 3.75,-2.5 3.75,-2.81 3.75,-3.12 3.44,-3.44 3.13,-3.75 3.12,-4.07 3.13,-4.37 2.5,-3.76 2.18,-4.06 2.51,-4.37 2.5,-4.69 2.5,-5 2.5,-5.32 2.81,-5.62 2.5,-6.26 2.5,-5.93 2.19,-6.57 2.5,-6.25 2.19,-6.56 1.87,-6.57 1.88,-6.25 1.56,-6.25 1.56,-6.25 1.57,-5.94 1.25,-5.94 1.25,-6.88 1.25,-6.56 0.94,-6.88 1.25,-7.19 0.94,-7.19 0.93,-7.18 1.25,-7.19 0.94,-6.88 1.56,-6.56 1.25,-6.57 1.57,-5.94 1.56,-5.62 1.87,-5.01 2.19,-4.37 2.19,-4.06 2.5,-3.75 3.44,-3.44 3.75,-3.13 4.07,-2.81 4.68,-2.5 5,-2.5 5.32,-1.88 5.63,-2.18 5.62,-1.57 5.31,-1.88 5.32,-1.56 5.31,-1.87 4.69,-1.57 4.38,-2.18 4.06,-2.19 3.44,-2.19 3.44,-2.82 3.43,-3.43 2.82,-3.44 3.12,-4.06 2.5,-4.38 2.5,-4.69 1.88,-4.69 1.87,-5 1.88,-4.69 1.25,-5 1.25,-4.69 0.94,-4.69 0.94,-4.68 0.62,-4.69 0.63,-4.69 0.62,-5 0.32,-5 0.62,-5.32 0.63,-5.31 0.31,-5.63 0.31,-5.62 0.63,-5.63 0.62,-5.63 0.31,-5.62 0.63,-5.32 0.62,-5.31 0.94,-5.63 0.63,-5.31 0.93,-5.63 1.25,-5.62 0.94,-5.63 1.57,-5.63 1.25,-5.31 1.56,-4.69 1.56,-4.37 1.88,-3.75 1.56,-2.82 1.56,-1.87 1.56,-0.94 h 1.57 l 1.56,0.94 1.25,1.87 1.57,2.5 1.25,3.44 1.56,4.06 1.56,4.69 1.25,5.63 1.56,6.25 1.88,6.57 1.56,6.87 1.56,7.19 1.25,7.19 1.57,7.19 1.56,7.19 1.25,6.56 1.56,6.57 1.25,5.94 1.57,6.87 1.56,6.57 1.87,6.56 1.57,6.25 2.18,5.94 2.19,5.94 2.51,5.63 2.5,5.31 2.81,4.69 2.81,4.38 3.13,3.75 3.43,3.12 3.45,3.13 3.75,2.18 2.5,1.57 3.12,1.56 3.13,1.25 3.12,0.94 3.44,0.94 3.75,0.31 3.75,0.62 h 3.76 l 4.06,-0.31 3.75,-0.31 4.06,-0.94 3.75,-0.94 3.75,-1.56 3.44,-1.88 3.44,-1.87 3.12,-2.5 2.82,-2.5 2.81,-3.13 2.5,-3.12 2.19,-3.76 2.19,-4.37 2.19,-4.69 1.87,-5.31 1.56,-5.94 1.88,-6.25 1.25,-6.88 1.56,-6.88 1.25,-7.18 1.25,-7.51 1.25,-7.5 1.25,-7.5 1.25,-7.19 1.25,-6.88 1.25,-6.56 1.57,-6.25 1.25,-5.94 1.56,-5.31 1.88,-5 1.87,-4.7 1.88,-4.06 2.5,-4.06 2.5,-3.44 2.81,-3.44 2.81,-2.81 3.13,-2.81 3.44,-2.19 3.44,-1.56 3.44,-1.57 3.75,-0.93 3.44,-0.63 h 3.43 l 3.44,0.31 3.44,0.63 3.12,0.94 3.13,1.25 3.13,1.56 3.12,2.5 3.44,2.5 3.13,3.12 3.44,3.76 3.43,3.75 3.44,4.68 3.13,4.69 3.43,5.32 3.45,5.31 3.12,5.63 3.13,5.62 3.12,5.63 3.13,5.62 2.81,5.32 2.5,5.63 2.81,5.31 2.82,5.32 2.5,5.62 2.81,5.63 2.82,5.62 3.12,5.94 2.81,5.63 3.13,6.25 2.81,5.94 3.13,5.62 2.81,5.63 2.5,5.63 2.81,5 2.5,5 2.19,4.69 2.19,4.37 2.19,4.07 2.5,5.31 2.5,5 2.5,5 2.5,5.01 2.5,5 2.5,5 2.19,4.38 2.19,4.68 2.19,4.07 1.87,4.06 1.88,3.44 1.87,3.75 2.19,4.37 2.19,4.38 2.19,4.69 2.5,4.38 2.19,4.68 2.18,4.07 1.88,3.75 1.56,3.44 1.56,2.81 1.25,2.5 0.94,2.5 1.25,1.87 0.63,1.88 0.94,2.19 0.94,2.19 0.62,2.5 1.25,2.81 1.25,3.44 0.94,3.13 0.94,3.43 1.25,3.75 1.56,4.38 1.56,4.69 1.56,4.69 1.25,5 1.57,5 1.56,4.69 1.25,4.37 0.94,4.07 1.25,3.75 0.94,4.06 0.62,4.07 0.63,3.75 0.62,3.43 0.31,3.76 0.32,3.44 0.31,3.12 v 20.63 l 0.31,4.37 0.31,4.7 0.32,4.68 0.62,4.69 0.63,4.69 0.62,4.38 1.25,4.37 0.94,3.75 0.94,3.44 1.25,4.07 1.56,4.06 1.88,4.37 1.56,4.38 1.88,4.38 1.87,4.68 1.88,4.38 1.87,4.38 1.88,4.37 1.87,4.38 1.56,4.06 1.57,4.07 1.56,4.37 1.88,4.69 1.87,4.69 2.19,5.31 2.19,5.32 2.18,5.31 2.5,5.63 2.51,5.62 2.81,5.32 2.5,5.31 2.81,5.31 3.13,5.32 2.5,4.38 2.5,4.37 2.82,4.38 3.12,4.69 3.13,4.68 3.43,5 3.44,5.32 3.75,5 3.75,5.31 3.75,5.32 4.07,5 3.75,5.31 4.06,5 3.75,4.69 3.75,4.69 3.76,4.38 3.75,4.37 3.43,4.07 4.07,4.69 4.06,4.68 4.07,4.69 4.37,4.69 4.38,4.69 4.37,4.69 4.38,4.38 4.37,4.68 4.38,4.07 4.07,4.06 3.75,3.75 3.75,3.13 3.43,3.12 3.44,2.81 2.82,2.5 2.81,1.88 4.06,3.13 3.75,2.19 3.75,1.87 4.07,1.56 4.06,1.25 4.06,0.63 3.75,0.62 2.51,0.63 h 1.25"
                   style="fill:none;stroke:#000000;stroke-width:4.68860006;stroke-linecap:round;stroke-linejoin:bevel;stroke-miterlimit:10;stroke-dasharray:none;stroke-opacity:1"
                   id="path2130"
                   inkscape:connector-curvature="0" /></g></g><g
               id="g2132"><g
                 id="g2134"
                 clip-path="url(#clipPath2138)"><path
                   d="M 1392.62,2501.68 H 2799.2"
                   style="fill:none;stroke:#000000;stroke-width:2.34430003;stroke-linecap:butt;stroke-linejoin:miter;stroke-miterlimit:10;stroke-dasharray:none;stroke-opacity:1"
                   id="path2140"
                   inkscape:connector-curvature="0" /></g></g><g
               id="g2142"><g
                 id="g2144"
                 clip-path="url(#clipPath2148)"><path
                   d="m 2777.63,2492.3 18.75,9.38 -18.75,9.37"
                   style="fill:none;stroke:#000000;stroke-width:2.34430003;stroke-linecap:butt;stroke-linejoin:miter;stroke-miterlimit:10;stroke-dasharray:none;stroke-opacity:1"
                   id="path2150"
                   inkscape:connector-curvature="0" /></g></g><g
               id="g2152"><g
                 id="g2154"
                 clip-path="url(#clipPath2158)"><path
                   d="m 1509.83,2431.35 v 937.72"
                   style="fill:none;stroke:#000000;stroke-width:2.34430003;stroke-linecap:butt;stroke-linejoin:miter;stroke-miterlimit:10;stroke-dasharray:none;stroke-opacity:1"
                   id="path2160"
                   inkscape:connector-curvature="0" /></g></g><g
               id="g2162"><g
                 id="g2164"
                 clip-path="url(#clipPath2168)"><path
                   d="m 1519.21,3347.5 -9.38,18.75 -9.38,-18.75"
                   style="fill:none;stroke:#000000;stroke-width:2.34430003;stroke-linecap:butt;stroke-linejoin:miter;stroke-miterlimit:10;stroke-dasharray:none;stroke-opacity:1"
                   id="path2170"
                   inkscape:connector-curvature="0" /></g></g><g
               id="g2172"><g
                 id="g2174"
                 clip-path="url(#clipPath2178)" /></g><g
               id="g2180"
               transform="scale(10)"><text
                 transform="matrix(1,0,0,-1,226.154,320.496)"
                 style="font-variant:normal;font-weight:normal;font-size:9.96263981px;font-family:LMMathItalic10;-inkscape-font-specification:LMMathItalic10-Regular;writing-mode:lr-tb;fill:#231f20;fill-opacity:1;fill-rule:nonzero;stroke:none"
                 id="text2184"><tspan
                   x="0"
                   y="0"
                   id="tspan2182">X</tspan></text>
<text
                 transform="matrix(1,0,0,-1,235.18994,320.496)"
                 style="font-variant:normal;font-weight:normal;font-size:9.96263981px;font-family:LMRoman10;-inkscape-font-specification:LMRoman10-Regular;writing-mode:lr-tb;fill:#231f20;fill-opacity:1;fill-rule:nonzero;stroke:none"
                 id="text2188"><tspan
                   x="0"
                   y="0"
                   id="tspan2186">(</tspan></text>
<text
                 transform="matrix(1,0,0,-1,239.05986,320.496)"
                 style="font-variant:normal;font-weight:normal;font-size:9.96263981px;font-family:LMMathItalic10;-inkscape-font-specification:LMMathItalic10-Regular;writing-mode:lr-tb;fill:#231f20;fill-opacity:1;fill-rule:nonzero;stroke:none"
                 id="text2192"><tspan
                   x="0"
                   y="0"
                   id="tspan2190">ω</tspan></text>
<text
                 transform="matrix(1,0,0,-1,245.6208,320.496)"
                 style="font-variant:normal;font-weight:normal;font-size:9.96263981px;font-family:LMRoman10;-inkscape-font-specification:LMRoman10-Regular;writing-mode:lr-tb;fill:#231f20;fill-opacity:1;fill-rule:nonzero;stroke:none"
                 id="text2196"><tspan
                   x="0"
                   y="0"
                   id="tspan2194">)</tspan></text>
</g><g
               id="g2198"><g
                 id="g2200"
                 clip-path="url(#clipPath2204)" /></g><g
               id="g2206"
               transform="scale(10)"><text
                 transform="matrix(1,0,0,-1,268.316,252.512)"
                 style="font-variant:normal;font-weight:normal;font-size:9.96263981px;font-family:LMMathItalic10;-inkscape-font-specification:LMMathItalic10-Regular;writing-mode:lr-tb;fill:#231f20;fill-opacity:1;fill-rule:nonzero;stroke:none"
                 id="text2210"><tspan
                   x="0"
                   y="0"
                   id="tspan2208">ω</tspan></text>
</g><g
               id="g2212"><g
                 id="g2214"
                 clip-path="url(#clipPath2218)" /></g></g></g></g></g></g></svg>